PathFileType	4	(X/Y/Z)	C:/Users/beibeiliu/ov580/test_trc/User2\sequence.42_training_dense_left.trc
DataRate	CameraRate	NumFrames	NumMarkers	Units	OrigDataRate	OrigDataStartFrame	OrigNumFrames
120	120	23	19	mm	120	26	200
Frame#	Time	ThumbCMC			ThumbMCP			ThumbIP			ThumbTip			IndexMCP			IndexPIP			IndexTip			MiddleMCP			MiddlePIP			MiddleTip			RingMCP			RingPIP			RingTip			PinkyMCP			PinkyPIP			PinkyTip			BackHand1			BackHand2			BackHand3	
		X0	Y0	Z0	X1	Y1	Z1	X2	Y2	Z2	X3	Y3	Z3	X4	Y4	Z4	X5	Y5	Z5	X6	Y6	Z6	X7	Y7	Z7	X8	Y8	Z8	X9	Y9	Z9	X10	Y10	Z10	X11	Y11	Z11	X12	Y12	Z12	X13	Y13	Z13	X14	Y14	Z14	X15	Y15	Z15	X16	Y16	Z16	X17	Y17	Z17	X18	Y18	Z18	
25	0.208333	-232.845	52.4862	13.1209	-219.868	80.8798	-2.21937	-208.373	104.788	-26.5503	-197.825	120.889	-38.5076	-247.619	56.3597	-73.4896	-246.582	67.5945	-98.1163	-246.348	75.8009	-123.537	-227.314	35.203	-85.4373	-207.439	44.296	-108.937	-183.255	47.715	-130.743	-212.047	6.33558	-83.2078	-190.185	11.8783	-101.792	-166.128	18.6157	-117.69	-204.638	-13.7982	-70.8996	-184.316	-13.2466	-86.6743	-166.954	-10.2057	-103.173	-246.653	-8.29756	-26.0079	-253.909	-10.7423	2.94635	-256.678	23.1506	-5.68084	
26	0.216667	-252.534	55.188	6.69363	-250.012	80.0381	-11.594	-247.287	101.058	-35.757	-243.326	119.532	-50.5935	-252.717	48.9459	-74.8445	-248.711	52.0096	-102.197	-245.915	59.0328	-127.289	-225.612	22.7317	-87.0896	-209.395	34.7341	-109.334	-188.113	41.7893	-131.382	-209.094	6.60021	-81.8425	-188.861	13.0276	-100.167	-167.822	23.434	-119.075	-193.077	-13.2628	-61.2433	-172.72	-3.83607	-78.6407	-156.233	-2.76808	-93.3909	-238.656	-11.6276	-28.6544	-248.928	-18.5802	7.0647	-261.245	18.4674	-10.1725	
27	0.225	-260.662	47.0753	2.53535	-266.515	72.4786	-15.0882	-273.179	94.0723	-44.3746	-276.316	113.434	-57.6391	-251.717	36.6515	-78.5569	-251.039	46.6205	-108.376	-242.543	48.9625	-133.361	-228.471	18.2577	-89.7087	-210.77	22.5949	-115.382	-192.499	35.5678	-142.181	-202.959	2.22699	-77.7785	-182.89	12.3515	-99.1829	-165.866	22.0331	-115.797	-181.631	-6.16547	-54.9335	-166.203	8.0936	-66.4044	-145.265	17.5589	-80.5288	-234.874	-9.89485	-25.3676	-242.222	-18.5534	7.61291	-260.417	11.1414	-15.2777	
28	0.233333	-269.287	44.3839	-3.6659	-271.784	62.6218	-20.4245	-281.557	82.9178	-47.793	-286.896	99.8836	-62.9857	-251.276	31.7318	-84.0989	-246.945	37.6229	-109.58	-238.793	44.0569	-141.036	-227.953	14.0564	-86.8386	-210.904	20.3751	-118.359	-192.738	26.9755	-139.616	-198.427	5.5333	-78.87	-181.528	15.8627	-99.438	-164.048	29.0373	-115.203	-178.552	3.89359	-52.7084	-157.896	22.7067	-59.8858	-141.211	38.3394	-69.7989	-227.846	-14.3755	-28.6153	-241.871	-18.8459	7.73497	-261.613	5.54418	-15.6107	
29	0.241667	-271.838	39.1012	-2.84979	-275.873	55.0796	-26.7743	-292.164	74.5907	-50.573	-297.353	90.5693	-67.9462	-249.661	24.0927	-83.2585	-247.838	31.3445	-111.702	-241.277	39.5443	-141.473	-222.604	6.69632	-88.6696	-208.615	15.3566	-116.864	-190.892	26.6203	-144.602	-196.646	6.03486	-76.6114	-178.143	18.6618	-95.0092	-158.46	35.0858	-108.961	-178.293	10.8015	-49.5299	-160.656	34.4478	-54.3078	-150.205	57.0826	-59.3702	-229.506	-13.2424	-24.1718	-239.426	-18.347	5.8415	-262.225	2.31974	-16.3725	
30	0.25	-272.972	31.0587	-7.77102	-284.76	47.5862	-30.8495	-293.196	62.6849	-54.4712	-302.723	76.5663	-75.9542	-254.342	18.9315	-88.1118	-247.17	21.06	-110.449	-239.373	26.2263	-143.105	-222.609	4.92478	-85.4398	-206.338	15.4401	-115.513	-188.397	29.9465	-137.332	-193.773	8.82047	-75.4711	-173.939	27.6221	-88.406	-163.363	55.4822	-97.4358	-179.232	17.073	-46.7718	-169.611	40.9835	-46.6527	-162.478	70.7507	-49.0663	-224.37	-19.5871	-25.7161	-237.569	-22.6671	8.38173	-261.107	-4.4881	-17.347	
31	0.258333	-279.018	27.9448	-4.73164	-290.053	43.6446	-29.3336	-298.831	54.6661	-54.6461	-311.754	68.1157	-74.0153	-253.94	13.4239	-86.3961	-251.637	17.9027	-110.477	-243.903	20.5502	-139.863	-224.253	13.4436	-88.3192	-207.689	31.9839	-110.073	-190.217	54.7828	-127.627	-195.348	15.7541	-67.6933	-182.539	39.6748	-76.4573	-172.881	72.7356	-75.3564	-182.844	15.7735	-43.696	-173.58	45.8848	-44.4646	-172.929	69.534	-43.6191	-227.886	-19.7093	-24.0485	-241.32	-22.3618	9.97766	-266.718	-3.59319	-17.6934	
32	0.266667	-281.093	27.6859	-5.21404	-290.219	40.9292	-27.6177	-304.392	53.4962	-55.2047	-310.957	63.6359	-75.7089	-258.252	13.9447	-81.9511	-248.418	15.5925	-110.161	-238.236	15.9467	-137.232	-224.337	18.1715	-81.9891	-206.776	42.1937	-99.9046	-189.848	72.1361	-106.207	-201.511	22.1969	-66.6486	-187.058	46.9346	-68.3999	-181.084	78.2403	-61.0223	-184.276	15.4323	-46.6301	-178.975	43.82	-51.7314	-174.902	71.8946	-50.3887	-229.267	-19.9865	-25.1875	-242.955	-22.4725	9.89685	-263.773	-6.23102	-14.4034	
33	0.275	-285.651	28.2158	-4.16341	-294.178	40.4156	-29.0292	-306.329	51.6248	-60.2487	-312.62	62.2737	-75.5993	-254.215	13.3619	-82.694	-244.722	15.1398	-109.057	-233.978	17.4924	-136.24	-224.757	26.1351	-81.2206	-206.527	51.0606	-90.2879	-191.041	80.483	-89.0249	-203.461	26.4904	-67.3137	-190.834	49.9579	-67.1225	-183.96	82.4646	-59.2388	-184.074	14.0672	-53.6054	-177.273	38.9596	-60.6565	-166.947	61.6834	-64.8702	-234.328	-17.9841	-27.4046	-243.33	-23.0704	4.33295	-267.093	-7.13944	-16.9975	
34	0.283333	-284.588	27.8266	-3.70668	-297.132	41.7374	-27.4431	-306.448	51.3896	-56.7782	-313.197	60.9784	-78.4213	-257.195	15.2563	-83.3125	-243.172	17.6468	-112.504	-232.855	18.6311	-133.22	-225.378	29.7874	-81.082	-206.109	57.8002	-85.6743	-191.954	89.8451	-79.2125	-203.614	23.2109	-69.9222	-193.393	51.9078	-74.8581	-183.859	82.3902	-68.0559	-188.672	7.46437	-53.8146	-175.286	32.3889	-70.0589	-166.987	54.9914	-79.7333	-235.343	-16.915	-27.691	-243.547	-22.6096	7.82259	-266.673	-6.30882	-17.1505	
35	0.291667	-286.148	29.3284	-1.63987	-296.057	39.7663	-30.0307	-304.692	49.9524	-56.8837	-311.74	60.9678	-79.2736	-258.675	15.552	-84.6019	-248.901	20.5044	-113.822	-236.761	22.0467	-134.02	-222.909	27.9937	-81.3286	-209.486	57.9513	-89.4674	-195.174	88.739	-86.8046	-202.898	20.7407	-71.951	-190.904	47.6692	-82.1802	-183.233	75.6239	-82.3244	-185.55	11.6473	-57.1303	-174.168	35.3074	-69.5293	-165.508	56.3514	-75.2377	-231.518	-17.345	-27.8158	-240.883	-23.1688	7.04077	-266.002	-4.26548	-14.1037	
36	0.3	-286.294	28.954	-1.60162	-294.753	39.8611	-28.6862	-304.981	50.97	-55.6039	-316.8	62.7093	-78.1917	-256.875	15.0672	-83.1919	-251.656	18.4756	-108.144	-241.704	21.8123	-135.263	-227.936	20.4383	-84.2001	-214.502	44.9844	-101.801	-193.499	72.8771	-108.171	-204.375	15.6826	-72.271	-192.201	37.0482	-86.4504	-180.507	69.9341	-97.1505	-187.073	20.1156	-53.6493	-179.381	45.2637	-60.6871	-171.295	71.7931	-63.1916	-228.156	-16.1298	-22.4379	-239.853	-21.6775	7.20442	-264.573	-4.11617	-13.6043	
37	0.308333	-283.923	29.3215	-3.5747	-295.466	41.0373	-29.4767	-306.622	53.6594	-53.8621	-317.625	65.2723	-75.9632	-260.817	15.3568	-87.3132	-259.367	19.1388	-112.816	-255.225	24.7394	-139.751	-229.856	11.0379	-85.027	-215.935	28.402	-111.536	-197.178	49.2514	-129.497	-203.055	13.3684	-72.9944	-191.416	37.0985	-91.4549	-174.682	63.9227	-101.106	-188.276	19.4939	-49.1522	-182.196	49.3375	-50.9311	-182.772	74.0556	-53.2208	-233.277	-14.3248	-22.083	-237.623	-22.6271	8.97891	-268.431	-2.69758	-16.2006	
38	0.316667	-282.859	28.2692	-3.28683	-298.305	43.5364	-26.6917	-310.703	54.9619	-54.8289	-314.96	66.7017	-73.7843	-264.622	14.2037	-82.5373	-265.719	18.8065	-113.122	-257.448	20.0658	-140.138	-236.507	7.79883	-87.3876	-219.482	18.8496	-115.758	-200.632	34.9017	-141.065	-205.894	18.0304	-74.9993	-191.581	40.3406	-87.1744	-180.102	68.9867	-92.2479	-192.105	25.9958	-47.9918	-186.769	52.7172	-43.713	-187.647	82.4159	-38.9038	-229.875	-14.7983	-22.6534	-242.449	-19.8651	7.33997	-269.874	-3.91527	-15.4618	
39	0.325	-282.954	27.2616	-2.28108	-293.508	41.6369	-24.2273	-310.389	54.2499	-55.6824	-319.475	65.7957	-78.1628	-263.433	12.2377	-86.0255	-263.37	14.0968	-108.623	-257.608	15.6384	-140.092	-230.518	7.99599	-88.4972	-217.139	22.7302	-114.98	-200.885	37.3439	-134.613	-207.263	24.5669	-70.0167	-193.228	52.7614	-74.7142	-185.119	84.6893	-69.0494	-192.883	30.5081	-44.0521	-192.792	57.1341	-36.193	-198.306	82.7974	-25.3747	-233.229	-15.5496	-23.7942	-239.473	-20.7314	8.87512	-270.458	-3.70106	-12.4344	
40	0.333333	-288.825	28.5978	-3.42084	-295.841	40.6435	-26.6292	-312.15	52.4762	-53.8188	-322.054	64.7494	-74.1247	-260.987	10.6298	-84.4748	-259.628	13.4409	-109.728	-250.659	12.2981	-135.705	-229.921	18.0627	-85.6443	-216.47	38.3766	-106.669	-203.249	64.8576	-122.912	-205.529	32.3285	-62.8728	-198.195	61.7979	-61.7151	-198.791	93.4687	-45.6896	-195.882	30.0079	-43.5421	-194.124	58.3004	-32.4709	-203.088	83.064	-23.263	-227.907	-14.9583	-25.8641	-240.079	-21.0026	9.15664	-267.869	-6.5401	-12.8544	
41	0.341667	-288.896	28.906	-2.4317	-293.968	43.1257	-22.7949	-312.085	56.0762	-55.3913	-318.723	66.5279	-74.6013	-261.972	15.8825	-82.2238	-257.211	17.6151	-107.11	-245.915	18.1328	-133.823	-227.978	27.1404	-83.4707	-214.437	52.627	-98.1313	-195.116	80.2731	-103.962	-204.675	33.1983	-60.9362	-199.938	63.4182	-57.5483	-199.477	92.237	-41.0439	-190.946	30.1428	-43.8459	-191.402	58.7097	-36.3999	-195.083	85.7576	-24.9458	-231.339	-13.622	-25.6125	-243.499	-19.2576	7.46313	-270.716	-3.46681	-12.3022	
42	0.35	-284.501	34.5311	-3.13034	-297.19	50.0707	-21.9329	-305.744	63.829	-52.9814	-314.336	77.5429	-68.861	-266.298	25.5762	-83.4724	-257.465	32.0962	-111.831	-246.927	38.4304	-139.339	-229.149	32.8218	-82.8015	-210.687	56.2327	-94.009	-192.602	87.0491	-97.9663	-206.125	28.978	-64.7667	-190.391	57.2518	-63.2453	-186.07	86.482	-52.8541	-190.846	22.0126	-49.3797	-184.428	50.387	-48.1752	-181.58	76.5701	-44.3041	-237.876	-14.0679	-25.3847	-246.734	-19.6243	7.05892	-272.352	0.579561	-12.6698	
43	0.358333	-283.742	42.7797	0.934142	-290.433	58.9831	-19.4348	-303.354	77.8282	-42.2698	-312.055	95.2233	-63.4917	-263.114	39.9782	-84.8741	-259.714	55.307	-105.54	-245.868	66.7312	-128.477	-233.233	30.4734	-82.7631	-213.674	56.0337	-100.504	-190.202	75.7864	-106.816	-208.697	25.5445	-73.5486	-191.671	43.6936	-78.8245	-172.356	71.2338	-77.5983	-194.608	15.3446	-57.8692	-179.318	35.7595	-59.9698	-168.22	56.3317	-64.4548	-245.588	-10.5584	-30.4012	-251.022	-19.967	4.70228	-277.117	8.78773	-12.1699	
44	0.366667	-279.581	44.0205	2.82314	-291.027	66.6188	-17.2612	-304.371	86.7534	-44.4119	-306.972	101.54	-59.7724	-264.025	50.209	-81.2066	-253.767	66.6722	-100.321	-234.551	84.5705	-119.668	-240.985	29.3345	-85.6206	-220.59	44.9517	-106.338	-198.562	65.752	-124.183	-211.363	17.7966	-79.6885	-195.762	30.8306	-91.2138	-173.55	52.7646	-102.755	-197.533	4.34439	-58.0904	-174.272	22.2419	-69.3795	-159.734	38.7603	-82.9308	-247.249	-9.31393	-28.1769	-256.445	-14.2348	3.08072	-279.206	12.0244	-16.0133	
45	0.375	-280.465	46.8039	0.475973	-288.316	68.9492	-19.6785	-296.422	89.2172	-40.2283	-303.397	106.756	-52.9107	-261.793	54.3864	-80.3134	-246.987	75.3621	-95.162	-226.553	92.6987	-107.106	-243.54	27.4248	-90.5346	-224.355	39.9372	-115.389	-209.82	54.1307	-135.907	-222.13	12.5235	-83.2257	-204.941	21.8044	-100.081	-183.416	38.9084	-122.004	-196.321	0.82752	-63.1797	-176.776	10.173	-74.4592	-162.74	17.6603	-91.2277	-244.652	-11.4936	-27.2084	-256.656	-15.7523	4.84838	-277.436	11.1638	-13.3759	
46	0.383333	-282.515	46.8337	-1.71261	-288.035	71.3283	-16.5347	-293.653	92.2175	-39.3958	-296.594	110.93	-56.812	-260.956	55.3518	-78.0613	-243.936	74.2128	-89.6882	-218.574	91.9377	-97.0212	-249.935	26.919	-91.6961	-235.435	39.4642	-119.591	-220.919	49.4977	-141.582	-224.739	5.52264	-83.1422	-215.322	16.2828	-106.954	-197.634	26.3917	-129.561	-199.301	-2.21721	-65.6189	-185.634	4.30499	-78.582	-168.257	8.85485	-96.5464	-247.918	-8.8749	-30.0276	-253.695	-16.868	4.05979	-278.169	11.0262	-14.2177	
47	0.391667	-281.659	48.8674	0.863431	-280.083	72.3862	-16.6753	-287.639	100.547	-39.3565	-287.105	119.259	-51.1176	-258.414	58.135	-78.7168	-243.173	76.9723	-85.4234	-218.585	96.8069	-90.1387	-252.921	25.0598	-89.1825	-240.324	36.1984	-118.661	-230.868	49.4331	-145.144	-230.27	6.43376	-87.5291	-223.199	14.0097	-109.325	-209.522	22.7325	-136.215	-206.096	-1.99129	-65.1147	-187.003	1.81618	-83.6828	-172.837	3.96838	-104.87	-246.567	-8.44654	-27.2881	-256.321	-16.7022	-0.59377	-279.697	9.66482	-14.7474	
